<?xml version="1.0" encoding="UTF-8"?>
<!DOCTYPE svg PUBLIC "-//W3C//DTD SVG 1.1//EN" "http://www.w3.org/Graphics/SVG/1.1/DTD/svg11.dtd">
<svg xmlns="http://www.w3.org/2000/svg" version="1.1" width="746px" height="661px" style="shape-rendering:geometricPrecision; text-rendering:geometricPrecision; image-rendering:optimizeQuality; fill-rule:evenodd; clip-rule:evenodd" xmlns:xlink="http://www.w3.org/1999/xlink">
<g><path style="opacity:1" fill="#163048" d="M 405.5,403.5 C 404.081,402.549 402.415,402.216 400.5,402.5C 397.797,394.238 395.63,385.905 394,377.5C 456.905,389.42 509.572,371.42 552,323.5C 589.355,274.331 597.355,220.664 576,162.5C 549.468,105.645 504.968,73.9787 442.5,67.5C 420.122,64.6094 398.122,66.776 376.5,74C 376.728,74.3988 377.062,74.5654 377.5,74.5C 316.115,98.4118 280.281,143.078 270,208.5C 263.364,202.866 257.031,196.866 251,190.5C 260.549,135.877 289.049,94.3773 336.5,66C 352.923,56.9504 370.256,50.4504 388.5,46.5C 430.234,38.3038 470.568,42.8038 509.5,60C 565.003,88.8025 598.837,133.969 611,195.5C 618.053,274.884 588.553,336.384 522.5,380C 486.148,401.104 447.148,408.937 405.5,403.5 Z"/></g>
<g><path style="opacity:1" fill="#091123" d="M 442.5,67.5 C 420.368,65.8247 398.701,68.158 377.5,74.5C 377.062,74.5654 376.728,74.3988 376.5,74C 398.122,66.776 420.122,64.6094 442.5,67.5 Z"/></g>
<g><path style="opacity:1" fill="#162f47" d="M 301.5,148.5 C 303.527,148.338 305.527,148.505 307.5,149C 314.658,152.412 321.658,156.078 328.5,160C 331.48,164.806 330.813,169.139 326.5,173C 324.167,173.667 321.833,173.667 319.5,173C 312.342,169.588 305.342,165.922 298.5,162C 297.427,160.687 296.76,159.187 296.5,157.5C 297.402,154.026 299.068,151.026 301.5,148.5 Z"/></g>
<g><path style="opacity:1" fill="#152c44" d="M 352.5,95.5 C 355.652,94.9586 358.152,95.9586 360,98.5C 364.766,105.704 369.266,113.038 373.5,120.5C 371.595,127.121 367.262,129.621 360.5,128C 355.544,121.254 350.71,114.421 346,107.5C 344.699,105.635 344.365,103.635 345,101.5C 347.478,99.3606 349.978,97.3606 352.5,95.5 Z"/></g>
<g><path style="opacity:1" fill="#18314a" d="M 422.5,72.5 C 426.596,70.7805 430.096,71.7805 433,75.5C 433.667,85.8333 433.667,96.1667 433,106.5C 431.607,109.366 429.274,110.699 426,110.5C 422.671,110.587 420.171,109.254 418.5,106.5C 419.33,96.6751 419.83,86.6751 420,76.5C 420.5,74.6667 421.667,73.5 423.5,73C 423.272,72.6012 422.938,72.4346 422.5,72.5 Z"/></g>
<g><path style="opacity:1" fill="#030716" d="M 422.5,72.5 C 422.938,72.4346 423.272,72.6012 423.5,73C 421.667,73.5 420.5,74.6667 420,76.5C 419.83,86.6751 419.33,96.6751 418.5,106.5C 418.333,95.8281 418.5,85.1615 419,74.5C 419.816,73.1772 420.983,72.5106 422.5,72.5 Z"/></g>
<g><path style="opacity:1" fill="#01051a" d="M 574.5,219.5 C 563.495,219.333 552.495,219.5 541.5,220C 540.667,220.833 539.833,221.667 539,222.5C 538.601,222.272 538.435,221.938 538.5,221.5C 538.953,220.542 539.619,219.708 540.5,219C 552.008,218.174 563.341,218.341 574.5,219.5 Z"/></g>
<g><path style="opacity:1" fill="#163049" d="M 520.5,105.5 C 525.402,106.563 527.902,109.563 528,114.5C 503,148.833 478,183.167 453,217.5C 453.624,235.196 445.457,246.363 428.5,251C 403.856,252.021 392.356,240.188 394,215.5C 400.011,199.58 411.511,191.746 428.5,192C 459.05,162.919 489.717,134.086 520.5,105.5 Z"/></g>
<g><path style="opacity:1" fill="#163048" d="M 347.5,203.5 C 357.822,202.652 365.988,206.319 372,214.5C 377.864,225.741 376.031,235.574 366.5,244C 359.657,248.575 352.49,249.408 345,246.5C 322.472,269.362 299.639,291.862 276.5,314C 274.305,315.373 271.971,315.706 269.5,315C 265.333,312.167 261.833,308.667 259,304.5C 258.245,301.697 258.578,299.03 260,296.5C 284.294,276.542 308.294,256.209 332,235.5C 327.756,220.321 332.922,209.655 347.5,203.5 Z"/></g>
<g><path style="opacity:1" fill="#1a324a" d="M 574.5,219.5 C 575.496,219.414 576.329,219.748 577,220.5C 577.667,223.833 577.667,227.167 577,230.5C 576.097,231.701 574.931,232.535 573.5,233C 562.833,233.667 552.167,233.667 541.5,233C 537.552,229.844 536.552,226.01 538.5,221.5C 538.435,221.938 538.601,222.272 539,222.5C 539.833,221.667 540.667,220.833 541.5,220C 552.495,219.5 563.495,219.333 574.5,219.5 Z"/></g>
<g><path style="opacity:1" fill="#0b1427" d="M 134.5,212.5 C 135.139,213.097 135.472,213.93 135.5,215C 134.187,221.437 133.354,227.937 133,234.5C 132.768,245.682 132.601,256.682 132.5,267.5C 130.733,249.053 131.399,230.719 134.5,212.5 Z"/></g>
<g><path style="opacity:1" fill="#163049" d="M 180.5,150.5 C 186.646,152.836 192.646,155.67 198.5,159C 207.782,165.281 216.782,171.948 225.5,179C 250.651,201.651 274.651,225.484 297.5,250.5C 294.148,254.686 290.314,258.353 286,261.5C 260.398,232.23 232.565,205.396 202.5,181C 175.221,158.587 165.388,164.754 173,199.5C 177.114,211.062 181.781,222.395 187,233.5C 220.808,295.664 265.308,349.164 320.5,394C 332.542,404.19 346.209,411.524 361.5,416C 368.549,417.646 372.882,414.979 374.5,408C 371.658,397.141 367.825,386.641 363,376.5C 348.585,347.313 331.418,319.98 311.5,294.5C 314.818,290.682 318.318,287.015 322,283.5C 338.955,304.129 353.955,326.129 367,349.5C 376.892,367.279 384.558,385.946 390,405.5C 391.997,416.67 388.164,425.17 378.5,431C 357.294,440.942 334.961,446.108 311.5,446.5C 272.762,443.038 238.429,429.038 208.5,404.5C 205.021,423.457 208.021,441.457 217.5,458.5C 229.326,459.331 241.326,459.831 253.5,460C 255.436,460.813 257.436,461.313 259.5,461.5C 261.404,461.738 262.738,462.738 263.5,464.5C 265.834,467.834 267.667,471.501 269,475.5C 269.499,479.486 269.666,483.486 269.5,487.5C 219.5,487.5 169.5,487.5 119.5,487.5C 119.815,483.629 119.482,479.962 118.5,476.5C 122.51,462.898 131.676,456.565 146,457.5C 156.477,430.214 168.311,403.547 181.5,377.5C 154.363,345.798 138.03,309.132 132.5,267.5C 132.601,256.682 132.768,245.682 133,234.5C 133.354,227.937 134.187,221.437 135.5,215C 135.472,213.93 135.139,213.097 134.5,212.5C 138.331,195.176 145.164,179.176 155,164.5C 158.5,159.667 162.667,155.5 167.5,152C 171.7,150.633 176.033,150.133 180.5,150.5 Z"/></g>
<g><path style="opacity:1" fill="#02071b" d="M 217.5,458.5 C 229.838,458.333 242.171,458.5 254.5,459C 256.491,459.374 258.158,460.207 259.5,461.5C 257.436,461.313 255.436,460.813 253.5,460C 241.326,459.831 229.326,459.331 217.5,458.5 Z"/></g>
<g><path style="opacity:1" fill="#01061b" d="M 263.5,464.5 C 266.558,466.957 268.892,469.957 270.5,473.5C 270.5,474.5 270.5,475.5 270.5,476.5C 270.5,480.5 270.5,484.5 270.5,488.5C 219.833,488.5 169.167,488.5 118.5,488.5C 118.5,484.5 118.5,480.5 118.5,476.5C 119.482,479.962 119.815,483.629 119.5,487.5C 169.5,487.5 219.5,487.5 269.5,487.5C 269.666,483.486 269.499,479.486 269,475.5C 267.667,471.501 265.834,467.834 263.5,464.5 Z"/></g>
<g><path style="opacity:1" fill="#7a8896" d="M 270.5,476.5 C 271.485,480.634 271.818,484.968 271.5,489.5C 220.331,489.832 169.331,489.499 118.5,488.5C 169.167,488.5 219.833,488.5 270.5,488.5C 270.5,484.5 270.5,480.5 270.5,476.5 Z"/></g>
<g><path style="opacity:1" fill="#0d1421" d="M 170.5,554.5 C 170.5,554.167 170.5,553.833 170.5,553.5C 178.984,552.507 187.651,552.174 196.5,552.5C 196.5,547.167 196.5,541.833 196.5,536.5C 171.833,536.5 147.167,536.5 122.5,536.5C 122.5,541.833 122.5,547.167 122.5,552.5C 131.506,552.334 140.506,552.5 149.5,553C 140.173,553.5 130.839,553.666 121.5,553.5C 121.5,547.5 121.5,541.5 121.5,535.5C 146.833,535.5 172.167,535.5 197.5,535.5C 197.5,541.833 197.5,548.167 197.5,554.5C 188.5,554.5 179.5,554.5 170.5,554.5 Z"/></g>
<g><path style="opacity:1" fill="#010613" d="M 539.5,545.5 C 536.975,543.125 534.975,540.291 533.5,537C 526.842,536.5 520.175,536.334 513.5,536.5C 513.5,569.167 513.5,601.833 513.5,634.5C 513.5,634.833 513.5,635.167 513.5,635.5C 512.502,602.338 512.168,569.004 512.5,535.5C 519.841,535.334 527.174,535.5 534.5,536C 536.426,539.076 538.092,542.242 539.5,545.5 Z"/></g>
<g><path style="opacity:1" fill="#163048" d="M 226.5,535.5 C 234.42,535.185 242.253,535.518 250,536.5C 261.471,569.747 272.638,603.08 283.5,636.5C 276.159,636.666 268.826,636.5 261.5,636C 259.011,629.371 256.678,622.704 254.5,616C 243.485,615.168 232.485,615.334 221.5,616.5C 219.293,623.12 217.293,629.787 215.5,636.5C 208.167,636.5 200.833,636.5 193.5,636.5C 204.655,602.881 215.655,569.214 226.5,535.5 Z"/></g>
<g><path style="opacity:1" fill="#163049" d="M 638.5,603.5 C 637.671,602.668 636.838,603.001 636,604.5C 635.5,614.828 635.334,625.161 635.5,635.5C 629.167,635.5 622.833,635.5 616.5,635.5C 616.5,602.5 616.5,569.5 616.5,536.5C 622.833,536.5 629.167,536.5 635.5,536.5C 635.168,550.913 635.501,564.58 636.5,577.5C 647.974,564.436 658.64,550.603 668.5,536C 677.167,535.333 685.833,535.333 694.5,536C 683.741,550.182 672.741,564.182 661.5,578C 672.708,596.916 684.041,615.75 695.5,634.5C 687.561,636.098 679.561,636.598 671.5,636C 663.248,622.832 655.248,609.499 647.5,596C 646.833,595.333 646.167,595.333 645.5,596C 642.933,598.396 640.6,600.896 638.5,603.5 Z"/></g>
<g><path style="opacity:1" fill="#17324b" d="M 170.5,553.5 C 169.502,580.662 169.169,607.995 169.5,635.5C 163.167,635.5 156.833,635.5 150.5,635.5C 150.831,608.328 150.498,581.328 149.5,554.5C 139.985,554.827 130.652,554.494 121.5,553.5C 130.839,553.666 140.173,553.5 149.5,553C 140.506,552.5 131.506,552.334 122.5,552.5C 122.5,547.167 122.5,541.833 122.5,536.5C 147.167,536.5 171.833,536.5 196.5,536.5C 196.5,541.833 196.5,547.167 196.5,552.5C 187.651,552.174 178.984,552.507 170.5,553.5 Z"/></g>
<g><path style="opacity:1" fill="#677887" d="M 572.5,535.5 C 572.5,556.167 572.5,576.833 572.5,597.5C 571.508,597.672 570.842,597.338 570.5,596.5C 571.167,576.167 571.833,555.833 572.5,535.5 Z"/></g>
<g><path style="opacity:1" fill="#151d2d" d="M 636.5,577.5 C 635.501,564.58 635.168,550.913 635.5,536.5C 629.167,536.5 622.833,536.5 616.5,536.5C 616.5,569.5 616.5,602.5 616.5,635.5C 622.833,635.5 629.167,635.5 635.5,635.5C 635.334,625.161 635.5,614.828 636,604.5C 636.838,603.001 637.671,602.668 638.5,603.5C 637.523,614.419 637.19,625.419 637.5,636.5C 630.167,636.5 622.833,636.5 615.5,636.5C 615.5,602.833 615.5,569.167 615.5,535.5C 622.833,535.5 630.167,535.5 637.5,535.5C 637.815,549.579 637.482,563.579 636.5,577.5 Z"/></g>
<g><path style="opacity:1" fill="#071c35" d="M 412.5,535.5 C 412.667,562.835 412.5,590.169 412,617.5C 411.5,590.502 411.333,563.502 411.5,536.5C 405.5,536.5 399.5,536.5 393.5,536.5C 393.5,569.5 393.5,602.5 393.5,635.5C 392.833,635.5 392.167,635.5 391.5,635.5C 391.5,602.167 391.5,568.833 391.5,535.5C 398.5,535.5 405.5,535.5 412.5,535.5 Z"/></g>
<g><path style="opacity:1" fill="#0e1e34" d="M 339.5,535.5 C 326.344,536.496 313.01,536.829 299.5,536.5C 299.5,569.5 299.5,602.5 299.5,635.5C 305.5,635.5 311.5,635.5 317.5,635.5C 317.333,623.829 317.5,612.162 318,600.5C 318.5,612.495 318.667,624.495 318.5,636.5C 311.5,636.5 304.5,636.5 297.5,636.5C 297.5,602.833 297.5,569.167 297.5,535.5C 311.5,535.5 325.5,535.5 339.5,535.5 Z"/></g>
<g><path style="opacity:1" fill="#163048" d="M 339.5,535.5 C 354.024,536.003 364.524,542.669 371,555.5C 375.374,573.904 369.541,587.904 353.5,597.5C 360.833,610.167 368.167,622.833 375.5,635.5C 367.855,636.665 360.188,636.831 352.5,636C 345.634,624.629 338.967,613.129 332.5,601.5C 328.217,600.508 323.884,600.174 319.5,600.5C 319.828,612.678 319.495,624.678 318.5,636.5C 318.667,624.495 318.5,612.495 318,600.5C 317.5,612.162 317.333,623.829 317.5,635.5C 311.5,635.5 305.5,635.5 299.5,635.5C 299.5,602.5 299.5,569.5 299.5,536.5C 313.01,536.829 326.344,536.496 339.5,535.5 Z"/></g>
<g><path style="opacity:1" fill="#e5e5e6" d="M 319.5,554.5 C 327.561,554.179 335.561,554.679 343.5,556C 350.972,561.773 352.472,568.94 348,577.5C 346.421,579.041 344.587,580.208 342.5,581C 334.905,582.356 327.238,582.856 319.5,582.5C 319.5,573.167 319.5,563.833 319.5,554.5 Z"/></g>
<g><path style="opacity:1" fill="#e8e8e9" d="M 237.5,563.5 C 241.57,574.536 245.57,585.703 249.5,597C 242.174,597.5 234.841,597.666 227.5,597.5C 231.036,586.226 234.369,574.893 237.5,563.5 Z"/></g>
<g><path style="opacity:1" fill="#1a344c" d="M 412.5,535.5 C 413.498,562.662 413.831,589.995 413.5,617.5C 426.5,617.5 439.5,617.5 452.5,617.5C 452.5,623.5 452.5,629.5 452.5,635.5C 432.833,635.5 413.167,635.5 393.5,635.5C 393.5,602.5 393.5,569.5 393.5,536.5C 399.5,536.5 405.5,536.5 411.5,536.5C 411.333,563.502 411.5,590.502 412,617.5C 412.5,590.169 412.667,562.835 412.5,535.5 Z"/></g>
<g><path style="opacity:1" fill="#17314a" d="M 539.5,545.5 C 550.223,562.232 560.556,579.232 570.5,596.5C 570.842,597.338 571.508,597.672 572.5,597.5C 573.499,577.909 573.833,557.576 573.5,536.5C 579.833,536.5 586.167,536.5 592.5,536.5C 592.5,569.167 592.5,601.833 592.5,634.5C 585.468,634.83 578.468,634.497 571.5,633.5C 571,632.5 570.5,631.5 570,630.5C 569.31,629.262 568.81,629.262 568.5,630.5C 557.108,612.062 545.941,593.396 535,574.5C 534.31,573.262 533.81,573.262 533.5,574.5C 532.778,574.082 532.278,573.416 532,572.5C 531.5,593.164 531.333,613.831 531.5,634.5C 525.5,634.5 519.5,634.5 513.5,634.5C 513.5,601.833 513.5,569.167 513.5,536.5C 520.175,536.334 526.842,536.5 533.5,537C 534.975,540.291 536.975,543.125 539.5,545.5 Z"/></g>
<g><path style="opacity:1" fill="#010a20" d="M 572.5,535.5 C 579.5,535.5 586.5,535.5 593.5,535.5C 593.5,568.833 593.5,602.167 593.5,635.5C 585.804,635.831 578.138,635.497 570.5,634.5C 569.82,633.14 569.153,631.807 568.5,630.5C 568.81,629.262 569.31,629.262 570,630.5C 570.5,631.5 571,632.5 571.5,633.5C 578.468,634.497 585.468,634.83 592.5,634.5C 592.5,601.833 592.5,569.167 592.5,536.5C 586.167,536.5 579.833,536.5 573.5,536.5C 573.833,557.576 573.499,577.909 572.5,597.5C 572.5,576.833 572.5,556.167 572.5,535.5 Z"/></g>
<g><path style="opacity:1" fill="#0d223a" d="M 469.5,535.5 C 476.833,535.5 484.167,535.5 491.5,535.5C 491.5,569.167 491.5,602.833 491.5,636.5C 484.167,636.5 476.833,636.5 469.5,636.5C 469.5,602.833 469.5,569.167 469.5,535.5 Z"/></g>
<g><path style="opacity:1" fill="#17324a" d="M 471.5,536.5 C 477.5,536.5 483.5,536.5 489.5,536.5C 489.5,569.5 489.5,602.5 489.5,635.5C 483.5,635.5 477.5,635.5 471.5,635.5C 471.5,602.5 471.5,569.5 471.5,536.5 Z"/></g>
<g><path style="opacity:1" fill="#000312" d="M 170.5,553.5 C 170.5,553.833 170.5,554.167 170.5,554.5C 170.5,581.833 170.5,609.167 170.5,636.5C 163.5,636.5 156.5,636.5 149.5,636.5C 149.5,609.167 149.5,581.833 149.5,554.5C 150.498,581.328 150.831,608.328 150.5,635.5C 156.833,635.5 163.167,635.5 169.5,635.5C 169.169,607.995 169.502,580.662 170.5,553.5 Z"/></g>
<g><path style="opacity:1" fill="#162f48" d="M 70.5,533.5 C 84.0861,531.864 95.9195,535.531 106,544.5C 109.423,548.847 111.923,553.68 113.5,559C 106.703,561.616 99.7028,563.449 92.5,564.5C 90.6168,555.786 85.1168,551.453 76,551.5C 65.8159,551.672 61.4826,556.672 63,566.5C 64.6626,568.917 66.8293,570.75 69.5,572C 81.6189,575.15 93.2855,579.484 104.5,585C 117.367,597.16 118.867,610.66 109,625.5C 102.811,632.674 94.9774,636.841 85.5,638C 69.6458,641.081 55.8124,637.247 44,626.5C 40.4522,621.705 37.9522,616.372 36.5,610.5C 44.0834,608.845 51.75,607.845 59.5,607.5C 60.4369,613.944 64.1036,618.111 70.5,620C 75.9042,620.772 81.2375,620.439 86.5,619C 94.4838,614.108 95.4838,608.108 89.5,601C 77.0834,596.295 64.7501,591.295 52.5,586C 42.4651,579.086 38.6317,569.586 41,557.5C 46.1932,543.808 56.0266,535.808 70.5,533.5 Z"/></g>
<g><path style="opacity:1" fill="#061a34" d="M 533.5,574.5 C 533.5,594.833 533.5,615.167 533.5,635.5C 526.833,635.5 520.167,635.5 513.5,635.5C 513.5,635.167 513.5,634.833 513.5,634.5C 519.5,634.5 525.5,634.5 531.5,634.5C 531.333,613.831 531.5,593.164 532,572.5C 532.278,573.416 532.778,574.082 533.5,574.5 Z"/></g>
<g><path style="opacity:1" fill="#000418" d="M 452.5,617.5 C 453.49,623.645 453.823,629.978 453.5,636.5C 432.66,636.831 411.993,636.497 391.5,635.5C 392.167,635.5 392.833,635.5 393.5,635.5C 413.167,635.5 432.833,635.5 452.5,635.5C 452.5,629.5 452.5,623.5 452.5,617.5 Z"/></g>
</svg>
